<svg xmlns="http://www.w3.org/2000/svg" viewBox="0 0 50 50"><path style="line-height:normal;text-indent:0;text-align:start;text-decoration-line:none;text-decoration-style:solid;text-decoration-color:#000;text-transform:none;block-progression:tb;isolation:auto;mix-blend-mode:normal" d="M28 7.945l-7 2.334v8l-5 1.666-6-2-7 2.334v9.442l.684.228L9 31.721v8l.684.228L16 42.055l7-2.334v-8l6-2v-8l5-1.666 6 2 7-2.334v-9.442l-7-2.334-6 2-6-2zm0 2.11l4.336 1.445L28 12.945 23.664 11.5 28 10.055zm12 0l4.336 1.445L40 12.945 35.664 11.5 40 10.055zm-17 3.334l4 1.332v4.89l-4-1.332v-4.89zm10 0v4.89l-4 1.332v-4.89l4-1.332zm2 0l4 1.332v4.89l-4-1.332v-4.89zm10 0v4.89l-4 1.332v-4.89l4-1.332zm-35 6.666l4.336 1.445L10 22.945 5.664 21.5 10 20.055zm12 0l4.336 1.445L22 22.945 17.664 21.5 22 20.055zM5 23.389l4 1.332v4.89L5 28.28v-4.89zm10 0v4.89l-4 1.332v-4.89l4-1.332zm2 0l4 1.332v4.89l-4-1.332v-4.89zm10 0v4.89l-4 1.332v-4.89l4-1.332zm-11 6.666l4.336 1.445L16 32.945 11.664 31.5 16 30.055zm-5 3.334l4 1.332v4.89l-4-1.332v-4.89zm10 0v4.89l-4 1.332v-4.89l4-1.332z"/></svg>